<?xml version="1.0" encoding="UTF-8" standalone="no"?>
<!-- Uploaded to: SVG Repo, www.svgrepo.com, Generator: SVG Repo Mixer Tools -->

<svg
   height="39.272797"
   width="50"
   version="1.1"
   id="Capa_1"
   viewBox="0 0 15.031875 11.806875"
   xml:space="preserve"
   sodipodi:docname="send.svg"
   inkscape:version="1.2.2 (732a01da63, 2022-12-09)"
   xmlns:inkscape="http://www.inkscape.org/namespaces/inkscape"
   xmlns:sodipodi="http://sodipodi.sourceforge.net/DTD/sodipodi-0.dtd"
   xmlns="http://www.w3.org/2000/svg"
   xmlns:svg="http://www.w3.org/2000/svg"><defs
   id="defs11" /><sodipodi:namedview
   id="namedview9"
   pagecolor="#ffffff"
   bordercolor="#000000"
   borderopacity="0.25"
   inkscape:showpageshadow="2"
   inkscape:pageopacity="0.0"
   inkscape:pagecheckerboard="0"
   inkscape:deskcolor="#d1d1d1"
   showgrid="false"
   inkscape:zoom="1.005"
   inkscape:cx="400.49751"
   inkscape:cy="161.69154"
   inkscape:window-width="1920"
   inkscape:window-height="991"
   inkscape:window-x="-9"
   inkscape:window-y="-9"
   inkscape:window-maximized="1"
   inkscape:current-layer="Capa_1" />
<g
   id="g6"
   transform="matrix(0.0625,0,0,0.0625,0,-1.6125)">
	<path
   style="fill:#010002"
   d="M 240.51,47.556 C 240.51,35.541 230.769,25.8 218.754,25.8 H 21.756 C 9.741,25.8 0,35.542 0,47.556 V 70.9 h 240.51 z"
   id="path2" />
	<path
   style="fill:#010002"
   d="M 240.51,192.954 V 106.979 H 0 v 85.975 c 0,12.015 9.741,21.756 21.756,21.756 h 196.997 c 12.016,0 21.757,-9.742 21.757,-21.756 z M 53.863,169.005 H 18.792 v -16.317 h 35.071 z m 52.612,0 H 71.399 v -16.317 h 35.077 v 16.317 z m 52.618,0 h -35.077 v -16.317 h 35.082 v 16.317 z m 52.606,0 h -35.071 v -16.317 h 35.071 z"
   id="path4" />
</g>
</svg>
