<?xml version="1.0" encoding="UTF-8" standalone="no"?>
<!-- Uploaded to: SVG Repo, www.svgrepo.com, Generator: SVG Repo Mixer Tools -->

<svg
   width="50.000027"
   height="50.000004"
   viewBox="0 0 1.5000008 1.5000001"
   fill="none"
   version="1.1"
   id="svg6"
   sodipodi:docname="settings.svg"
   inkscape:version="1.2.2 (732a01da63, 2022-12-09)"
   xmlns:inkscape="http://www.inkscape.org/namespaces/inkscape"
   xmlns:sodipodi="http://sodipodi.sourceforge.net/DTD/sodipodi-0.dtd"
   xmlns="http://www.w3.org/2000/svg"
   xmlns:svg="http://www.w3.org/2000/svg">
  <defs
     id="defs10" />
  <sodipodi:namedview
     id="namedview8"
     pagecolor="#ffffff"
     bordercolor="#000000"
     borderopacity="0.25"
     inkscape:showpageshadow="2"
     inkscape:pageopacity="0.0"
     inkscape:pagecheckerboard="0"
     inkscape:deskcolor="#d1d1d1"
     showgrid="false"
     inkscape:zoom="1.005"
     inkscape:cx="400.49751"
     inkscape:cy="400.49751"
     inkscape:window-width="1920"
     inkscape:window-height="991"
     inkscape:window-x="-9"
     inkscape:window-y="-9"
     inkscape:window-maximized="1"
     inkscape:current-layer="svg6" />
  <path
     d="m 0.67307713,0.0576925 h 0.15384616 c 0.0424846,0 0.0769231,0.03444 0.0769231,0.07692307 v 0.0437531 c 0,0.0329077 0.0220846,0.0614969 0.0524769,0.0741146 0.0304077,0.0126231 0.0658077,0.007812 0.0890846,-0.0154654 l 0.030946,-0.0309477 c 0.030039,-0.0300408 0.078746,-0.0300408 0.1087847,0 l 0.1087846,0.10878538 c 0.030046,0.0300408 0.030038,0.0787454 0,0.10878616 l -0.030938,0.0309431 c -0.023285,0.0232792 -0.028092,0.0586823 -0.015469,0.0890877 0.012615,0.0303946 0.041208,0.0524815 0.074123,0.0524815 h 0.043746 c 0.042485,0 0.076923,0.0344385 0.076923,0.0769231 v 0.15384616 c 0,0.0424846 -0.034439,0.0769231 -0.076923,0.0769231 h -0.043754 c -0.032908,0 -0.061492,0.0220846 -0.074115,0.0524769 -0.012623,0.0304077 -0.00782,0.0658077 0.015469,0.0890846 l 0.030938,0.030946 c 0.030046,0.030039 0.030046,0.078746 0,0.1087847 L 1.1851387,1.2939233 c -0.030039,0.030046 -0.078746,0.030046 -0.1087847,0 l -0.030946,-0.030939 c -0.023277,-0.023285 -0.0586769,-0.028092 -0.0890846,-0.015469 -0.0303923,0.012623 -0.0524769,0.041208 -0.0524769,0.074115 v 0.043754 c 0,0.042485 -0.0344385,0.076923 -0.0769231,0.076923 H 0.67307713 c -0.0424846,0 -0.0769231,-0.034439 -0.0769231,-0.076923 v -0.043746 c 0,-0.032915 -0.0220869,-0.061508 -0.0524815,-0.074123 -0.0304054,-0.012623 -0.0658085,-0.00782 -0.0890877,0.015469 l -0.0309446,0.030939 c -0.0300408,0.030046 -0.0787454,0.030046 -0.10878538,0 L 0.20606867,1.1851387 c -0.03004,-0.030039 -0.03004,-0.078746 0,-0.1087847 l 0.0309492,-0.030946 c 0.0232777,-0.023277 0.0280885,-0.0586769 0.0154654,-0.0890846 -0.0126177,-0.0303923 -0.0412069,-0.0524769 -0.0741146,-0.0524769 h -0.0437531 c -0.04248307,0 -0.07692307,-0.0344385 -0.07692307,-0.0769231 V 0.67307711 c 0,-0.0424846 0.03444,-0.0769231 0.07692307,-0.0769231 h 0.0437515 c 0.0329085,0 0.0614985,-0.0220862 0.0741169,-0.05248 0.0126238,-0.0304046 0.007813,-0.0658054 -0.0154662,-0.0890846 l -0.0309476,-0.0309477 c -0.0300408,-0.0300408 -0.0300408,-0.0787454 0,-0.10878539 L 0.31485559,0.20607019 c 0.0300408,-0.03004 0.0787454,-0.03004 0.10878616,0 l 0.0309477,0.0309477 c 0.0232785,0.0232792 0.05868,0.02809 0.0890846,0.0154662 0.0303938,-0.0126185 0.05248,-0.0412085 0.05248,-0.0741177 v -0.0437508 c 0,-0.04248307 0.0344385,-0.07692307 0.0769231,-0.07692309 z"
     stroke="#000000"
     stroke-width="0.115385"
     id="path2" />
  <path
     d="m 0.90384636,0.75000019 c 0,0.0849692 -0.0688769,0.15384615 -0.15384615,0.15384615 -0.0849692,0 -0.15384615,-0.0688769 -0.15384615,-0.15384615 0,-0.0849692 0.0688769,-0.15384615 0.15384615,-0.15384615 0.0849692,0 0.15384615,0.0688769 0.15384615,0.15384615 z"
     stroke="#000000"
     stroke-width="0.115385"
     id="path4" />
</svg>
